<svg width="48" height="48" xmlns="http://www.w3.org/2000/svg"><path d="M43.328 37.244a25.78 25.78 0 01-2.55 4.583c-1.34 1.912-2.438 3.234-3.283 3.97-1.312 1.205-2.716 1.823-4.22 1.858-1.08 0-2.383-.308-3.9-.931-1.52-.62-2.918-.928-4.196-.928-1.341 0-2.779.307-4.316.928-1.54.623-2.781.948-3.73.98-1.442.062-2.88-.573-4.316-1.908-.916-.799-2.062-2.169-3.434-4.11-1.473-2.071-2.684-4.474-3.632-7.214-1.016-2.959-1.526-5.824-1.526-8.598 0-3.178.687-5.919 2.062-8.215 1.081-1.845 2.52-3.3 4.319-4.369a11.617 11.617 0 015.838-1.647c1.146 0 2.649.354 4.516 1.051 1.862.699 3.058 1.053 3.582 1.053.392 0 1.72-.414 3.972-1.24 2.129-.767 3.926-1.084 5.398-.959 3.99.322 6.987 1.895 8.98 4.728-3.568 2.162-5.333 5.19-5.298 9.074.032 3.025 1.13 5.543 3.287 7.542.978.928 2.07 1.645 3.284 2.154a35.49 35.49 0 01-.837 2.198zM34.178 1.24c0 2.371-.866 4.585-2.593 6.635-2.084 2.436-4.604 3.844-7.337 3.622a7.382 7.382 0 01-.056-.899c0-2.276.992-4.713 2.751-6.705.879-1.008 1.997-1.847 3.352-2.516C31.647.72 32.925.355 34.129.292c.035.317.05.634.05.949z" fill="#FFF"/></svg>