<svg width="54" height="35" viewBox="0 0 54 35" xmlns="http://www.w3.org/2000/svg" xmlns:xlink="http://www.w3.org/1999/xlink">
  <defs>
    <path id="a" d="M0 .784h48.568v30.96H0z"/>
  </defs>
  <g fill="none" fill-rule="evenodd">
    <path fill="#757575" d="M8 21.279h34v-5.558H8z"/>
    <g>
      <mask id="b" fill="#fff">
        <use xlink:href="#a"/>
      </mask>
      <path d="M1.735 12.373h45.096v15.691c0 1.08-.774 1.957-1.737 1.957H3.472c-.963 0-1.737-.878-1.737-1.957v-15.69zm1.737-9.867h41.622c.963 0 1.737.768 1.737 1.723v1.716H1.735V4.229c0-.956.774-1.723 1.737-1.723zm0-1.722c-1.92 0-3.474 1.54-3.474 3.445v24.076c0 1.898 1.554 3.439 3.474 3.439h41.622c1.914 0 3.474-1.541 3.474-3.439V4.229c0-1.905-1.56-3.445-3.474-3.445H3.472z" fill="#757575" mask="url(#b)"/>
    </g>
    <path d="M53.078 23.28c0-6.026-4.93-10.908-11.006-10.908-6.07 0-10.994 4.882-10.994 10.907 0 6.026 4.923 10.907 10.994 10.907 6.077 0 11.006-4.881 11.006-10.907" fill="#FFF"/>
    <path d="M42.074 13.186c-5.612 0-10.181 4.53-10.181 10.095 0 5.564 4.569 10.094 10.18 10.094 5.612 0 10.188-4.53 10.188-10.095 0-5.564-4.576-10.094-10.187-10.094m0 21.814c-6.517 0-11.82-5.259-11.82-11.72 0-6.46 5.303-11.719 11.82-11.719 6.516 0 11.826 5.259 11.826 11.72C53.9 29.74 48.59 35 42.074 35" fill="#757575"/>
    <path d="M37.234 24.93c-.236.117-.623.188-.984.188-1.101 0-1.73-.663-1.73-1.813 0-1.164.662-1.866 1.756-1.866.479 0 .8.124.944.195l.354.169.348-1.196-.243-.123c-.157-.085-.61-.273-1.422-.273-1.849 0-3.134 1.28-3.134 3.12s1.174 3.022 2.983 3.022c.616 0 1.2-.104 1.56-.286l.25-.123-.315-1.19-.367.176zM42.7 20.296l-.982 2.847c-.099.28-.204.585-.295.884-.086-.273-.184-.566-.276-.884l-.911-2.847h-1.455l1.973 5.973h1.239l2.157-5.973H42.7zM49.263 20.296l-.983 2.847c-.099.28-.204.585-.295.884l-.276-.884-.91-2.847h-1.456l1.973 5.973h1.239l2.157-5.973h-1.449z" fill="#757575"/>
  </g>
</svg>