<svg xmlns="http://www.w3.org/2000/svg" viewBox="0 0 16.37 16.6"><defs><style>.cls-1{fill:none;stroke:#979797;stroke-linecap:round;stroke-linejoin:round;stroke-width:.6px}</style></defs><g id="Layer_2" data-name="Layer 2"><g id="Layer_1-2" data-name="Layer 1"><path class="cls-1" d="M12.7 10.64V9H7a.27.27 0 01-.27-.27v-.9A.27.27 0 017 7.58h5.7V6a.27.27 0 01.46-.19L16 8.11a.22.22 0 01.09.19.22.22 0 01-.09.19l-2.82 2.35a.27.27 0 01-.48-.2z"/><path class="cls-1" d="M10.48 10.91v3.58a1.81 1.81 0 01-1.81 1.81H2.11A1.81 1.81 0 01.3 14.49V2.11A1.81 1.81 0 012.11.3h6.56a1.81 1.81 0 011.81 1.81v3.58"/></g></g></svg>