<svg width="19" height="15" xmlns="http://www.w3.org/2000/svg"><g stroke="#AFAFAF" fill="none" fill-rule="evenodd"><path d="M9.879 10.899c1.755 0 3.194-1.52 3.194-3.399 0-1.88-1.44-3.399-3.194-3.399-1.755 0-3.194 1.52-3.194 3.399 0 1.88 1.44 3.399 3.194 3.399zm0-6.599c1.693 0 3.058 1.441 3.058 3.2 0 1.759-1.365 3.2-3.058 3.2-1.693 0-3.058-1.441-3.058-3.2 0-1.759 1.365-3.2 3.058-3.2zm8.497 3.393l-.007-.387c-.494-.664-1.307-1.555-2.392-2.425C14.112 3.386 12.06 2.5 9.88 2.5s-4.233.886-6.098 2.381c-1.085.87-1.898 1.76-2.392 2.425l-.007.387c.456.66 1.23 1.552 2.29 2.42C5.497 11.611 7.576 12.5 9.878 12.5s4.38-.889 6.208-2.387c1.058-.868 1.833-1.76 2.29-2.42zm-16.69-.499C3.766 4.662 6.576 2.7 9.88 2.7c3.295 0 6.106 1.964 8.192 4.496l.255.308-.245.316c-1.96 2.526-4.737 4.482-8.202 4.482-3.455 0-6.236-1.957-8.2-4.482l-.246-.316.253-.309z" fill="#AFAFAF"/><path d="M2.073 14.5L17.685.5" stroke-linecap="round"/></g></svg>