<svg width="19" height="11" viewBox="0 0 18 11" xmlns="http://www.w3.org/2000/svg"><path d="M9 8.899c1.755 0 3.194-1.52 3.194-3.399 0-1.88-1.44-3.399-3.194-3.399-1.755 0-3.194 1.52-3.194 3.399 0 1.88 1.44 3.399 3.194 3.399zM9 2.3c1.693 0 3.058 1.441 3.058 3.2 0 1.759-1.365 3.2-3.058 3.2-1.693 0-3.058-1.441-3.058-3.2 0-1.759 1.365-3.2 3.058-3.2zm8.497 3.393l-.007-.387c-.494-.664-1.307-1.555-2.392-2.425C13.233 1.386 11.181.5 9 .5s-4.233.886-6.098 2.381c-1.085.87-1.898 1.76-2.392 2.425l-.007.387c.456.66 1.23 1.552 2.29 2.42C4.618 9.611 6.697 10.5 9 10.5s4.38-.889 6.208-2.387c1.058-.868 1.833-1.76 2.29-2.42zM.807 5.194C2.887 2.662 5.697.7 9 .7c3.296 0 6.106 1.964 8.192 4.496l.255.308-.245.316c-1.96 2.526-4.737 4.482-8.202 4.482-3.455 0-6.236-1.957-8.2-4.482l-.246-.316.253-.309z" stroke="#AFAFAF" fill="none"/></svg>