<svg width="48" height="48" xmlns="http://www.w3.org/2000/svg"><g fill="none"><path d="M46.721 24.379a28.402 28.402 0 00-.41-4.846H23.833v9.18h12.874a11.033 11.033 0 01-4.76 7.242v5.959h7.683c4.5-4.148 7.091-10.282 7.091-17.535z" fill="#4285F4"/><path d="M23.833 47.67c6.432 0 11.848-2.111 15.797-5.753l-7.683-5.958c-2.138 1.45-4.893 2.277-8.114 2.277-6.216 0-11.493-4.19-13.38-9.838H2.538v6.14a23.834 23.834 0 0021.295 13.133z" fill="#34A853"/><path d="M10.453 28.398a14.28 14.28 0 010-9.124v-6.14H2.538a23.834 23.834 0 000 21.404l7.915-6.14z" fill="#FBBC04"/><path d="M23.833 9.436a12.94 12.94 0 019.144 3.575l6.802-6.803A22.901 22.901 0 0023.833.002c-9.01 0-17.25 5.081-21.295 13.132l7.915 6.14c1.887-5.647 7.164-9.838 13.38-9.838z" fill="#EA4335"/></g></svg>