<svg viewBox="0 0 108 31" xmlns="http://www.w3.org/2000/svg"><g fill="none" fill-rule="evenodd"><path d="M52.053 15.486l-1.514-4.26a9.506 9.506 0 01-.233-.673c-.08-.26-.16-.54-.24-.842-.075.302-.153.584-.233.846-.08.263-.158.492-.232.687l-1.506 4.242h3.958zm4.087 4.836h-1.79a.75.75 0 01-.49-.155.963.963 0 01-.284-.385l-.93-2.613h-5.153l-.93 2.613a.848.848 0 01-.266.372.73.73 0 01-.49.168H44l4.895-12.807h2.358l4.887 12.807zm7.118-7.165a1.076 1.076 0 01-.185.195.418.418 0 01-.263.07.572.572 0 01-.318-.101 10.189 10.189 0 00-.37-.23 2.726 2.726 0 00-.512-.23 2.29 2.29 0 00-.735-.103c-.373 0-.7.07-.981.208a1.872 1.872 0 00-.701.598c-.187.26-.326.575-.418.944a5.207 5.207 0 00-.137 1.253c0 .484.05.915.15 1.293.1.378.245.695.435.952.189.257.418.452.688.585.27.133.574.199.912.199.338 0 .612-.043.822-.128.209-.086.385-.18.529-.284a9.16 9.16 0 00.374-.283.554.554 0 01.357-.129c.172 0 .301.068.387.204l.611.797c-.235.284-.49.521-.766.713a4.099 4.099 0 01-1.768.704 6.24 6.24 0 01-.933.071 3.818 3.818 0 01-1.54-.314 3.64 3.64 0 01-1.265-.917 4.405 4.405 0 01-.856-1.475c-.21-.581-.314-1.244-.314-1.988 0-.667.093-1.286.28-1.856.186-.57.46-1.063.821-1.479a3.77 3.77 0 011.342-.979c.534-.236 1.147-.354 1.842-.354.66 0 1.237.11 1.733.328.496.218.942.531 1.338.939l-.56.797zm8.21 0a1.076 1.076 0 01-.184.195.418.418 0 01-.263.07.572.572 0 01-.318-.101 10.189 10.189 0 00-.37-.23 2.726 2.726 0 00-.512-.23 2.29 2.29 0 00-.736-.103c-.372 0-.7.07-.98.208a1.872 1.872 0 00-.702.598 2.75 2.75 0 00-.417.944 5.207 5.207 0 00-.138 1.253c0 .484.05.915.151 1.293.1.378.245.695.435.952.189.257.418.452.688.585.27.133.573.199.912.199.338 0 .612-.043.821-.128.21-.086.386-.18.53-.284a9.16 9.16 0 00.374-.283.554.554 0 01.357-.129c.172 0 .301.068.387.204l.611.797c-.235.284-.49.521-.766.713a4.099 4.099 0 01-1.768.704 6.24 6.24 0 01-.933.071 3.818 3.818 0 01-1.54-.314 3.64 3.64 0 01-1.265-.917 4.405 4.405 0 01-.856-1.475c-.21-.581-.314-1.244-.314-1.988 0-.667.093-1.286.28-1.856.186-.57.46-1.063.821-1.479a3.77 3.77 0 011.342-.979c.534-.236 1.147-.354 1.841-.354.66 0 1.238.11 1.734.328.496.218.942.531 1.338.939l-.56.797zm5.794-2.064c.654 0 1.249.11 1.785.328a3.9 3.9 0 011.377.93c.381.401.675.891.882 1.47.206.579.31 1.225.31 1.94 0 .72-.104 1.37-.31 1.948a4.196 4.196 0 01-.882 1.48c-.382.407-.84.72-1.377.938a4.69 4.69 0 01-1.785.328c-.66 0-1.26-.11-1.798-.328a3.84 3.84 0 01-1.381-.938 4.248 4.248 0 01-.886-1.48c-.21-.578-.314-1.228-.314-1.948 0-.715.104-1.361.314-1.94a4.133 4.133 0 01.886-1.47 3.895 3.895 0 011.38-.93 4.748 4.748 0 011.799-.328zm0 7.68c.734 0 1.278-.255 1.63-.762.353-.508.53-1.252.53-2.232 0-.98-.177-1.728-.53-2.241-.352-.514-.896-.77-1.63-.77-.746 0-1.298.257-1.656.774-.359.517-.538 1.262-.538 2.237 0 .974.18 1.716.538 2.227.358.51.91.766 1.656.766zm13.657-7.538v9.087h-1.3c-.28 0-.458-.133-.533-.398l-.146-.727a4.74 4.74 0 01-1.196.917c-.436.233-.95.35-1.54.35-.482 0-.908-.084-1.278-.252a2.566 2.566 0 01-.933-.713 3.151 3.151 0 01-.572-1.094 4.756 4.756 0 01-.194-1.395v-5.775h2.125v5.775c0 .555.125.984.375 1.288.25.305.623.457 1.122.457.367 0 .712-.085 1.033-.253.321-.168.625-.4.912-.695v-6.572h2.125zm4.158 1.116a5.9 5.9 0 01.564-.51 3.453 3.453 0 011.338-.655c.252-.062.528-.093.826-.093.482 0 .909.084 1.282.253.373.168.684.404.933.708.25.304.44.667.568 1.09.13.422.194.887.194 1.395v5.783h-2.125V14.54c0-.555-.124-.985-.37-1.29-.247-.303-.623-.455-1.127-.455-.368 0-.712.085-1.033.257a3.71 3.71 0 00-.912.7v6.571H93.09v-9.087h1.3c.274 0 .455.133.541.398l.146.718zm10.612 8.113c-.769 0-1.358-.223-1.768-.669-.41-.446-.615-1.061-.615-1.846v-5.076h-.904a.408.408 0 01-.292-.115c-.08-.076-.12-.192-.12-.345v-.868l1.419-.24.447-2.48a.488.488 0 01.164-.274.477.477 0 01.31-.097h1.1v2.86h2.358v1.56h-2.357v4.924c0 .283.067.505.202.664.135.16.32.24.555.24a.974.974 0 00.331-.05c.089-.032.166-.066.232-.101a2.99 2.99 0 00.177-.102.289.289 0 01.155-.049c.063 0 .114.017.154.049.04.032.084.081.13.146l.636 1.063c-.31.266-.665.466-1.067.602a3.867 3.867 0 01-1.247.204z" fill="#000"/><g fill-rule="nonzero"><path fill="#FFF" d="M.458.602V30.32h28.867V.602z"/><path d="M.458.602V30.32h28.867V.602H.458zm26.947 12.35c-.042.936-.33 2.084-.578 2.849-1.012 3.104-2.19 5.038-4.915 5.038-.805 0-2.23-.213-2.746-1.68l-.124-.34-.227.298a4.462 4.462 0 01-3.47 1.764c-1.032 0-1.878-.36-2.415-1.041l-.145-.191-.165.17c-.578.659-1.59 1.041-2.767 1.041-.93 0-1.714-.319-2.25-.914l-.145-.17-.145.149c-.578.616-1.507.914-2.664.893-1.404-.043-2.25-.85-2.292-2.147-.04-2.02 1.859-6.292 2.664-7.59.516-.87 1.218-1.296 2.148-1.296.64 0 1.073.128 1.342.425.227.255.289.468.31 1l.02.68.351-.574c.847-1.382 2.23-1.573 3.593-1.573.95 0 1.797.361 2.127.914l.124.212.186-.148c.702-.617 1.714-.957 2.808-.957 1.198 0 2.086.319 2.602.914.124.149.206.234.31.468l.144.297.207-.255c.764-.935 1.817-1.403 3.118-1.403 1.032 0 1.817.277 2.312.83.64.658.723 1.636.682 2.338z" fill="#FFED00"/><path d="M.458.602V30.32h28.867V.602H.458zM28.23 14.1c-.124 1.085-.847 3.083-1.219 3.89-1.011 2.147-2.374 3.806-4.976 3.806-1.384 0-2.54-.468-3.2-1.34-.971.893-2.19 1.34-3.511 1.34-1.012 0-1.9-.298-2.581-.85-.743.552-1.755.85-2.87.85-.93 0-1.776-.256-2.437-.744-.723.488-1.693.744-2.808.722-1.859-.042-3.16-1.254-3.18-3.04-.041-2.338 1.879-6.653 2.787-8.141.661-1.148 1.694-1.764 2.974-1.764 1.383 0 1.879.404 2.127.914 1.053-.936 2.478-.978 3.469-.978 1.115 0 1.796.298 2.395.786.805-.51 1.755-.765 2.87-.765 1.425 0 2.478.34 3.222 1.084.867-.744 1.94-1.063 3.138-1.063 1.59 0 2.643.596 3.263 1.467.846 1.254.702 2.509.537 3.826z" fill="#E3000B"/><path d="M.251.39v30.12h29.26V.39H.25zM29.12.815v29.292H.664V.815H29.12z" fill="#000"/><path d="M28.086 9.445v-.212h.145c.103 0 .144.042.144.106 0 .042-.041.106-.124.106h-.165zm.475.425l-.083-.149c-.082-.127-.103-.148-.165-.17.124-.02.186-.106.186-.212 0-.128-.082-.213-.227-.213H27.9v.744h.145v-.297h.02c.062 0 .083 0 .124.042a.443.443 0 01.104.149l.062.128h.206V9.87zm-.35-.956c.309 0 .557.255.557.574a.564.564 0 01-.558.574.564.564 0 01-.557-.574c0-.32.247-.574.557-.574zm0-.15a.707.707 0 00-.703.724c0 .404.31.722.702.722a.707.707 0 00.702-.722.707.707 0 00-.702-.723zm-3.821.766c-1.507 0-2.56.617-3.263 1.488a2.117 2.117 0 00-.33-.51c-.578-.68-1.507-1-2.767-1-1.218 0-2.23.384-2.953 1.021-.371-.616-1.239-1.02-2.292-1.02-1.383 0-2.87.191-3.779 1.68-.02-.532-.062-.809-.35-1.127-.352-.383-.93-.49-1.487-.49-1.012 0-1.776.447-2.334 1.382-.805 1.318-2.725 5.612-2.684 7.717.02 1.339.909 2.317 2.478 2.36 1.239.02 2.189-.298 2.808-.936.558.616 1.384.978 2.395.978 1.115 0 2.251-.34 2.912-1.106.557.702 1.445 1.127 2.581 1.106 1.487 0 2.788-.723 3.634-1.85.475 1.297 1.652 1.829 2.932 1.829 2.83 0 4.068-1.999 5.1-5.166.228-.723.538-1.913.6-2.912.103-1.68-.579-3.444-3.201-3.444zM5.558 17.502c1.466-.255 1.838.276 1.797.786-.145 1.51-1.487 1.85-2.664 1.828-.847-.021-1.61-.425-1.631-1.424-.042-1.764 1.713-5.867 2.54-7.227.371-.638.846-.957 1.59-.957.701 0 .887.361.867.808-.021 1.169-1.88 4.783-2.499 6.186zm4.77-1.382c-.103.276-.29.829-.434 1.445.475-.127.847-.212 1.466-.19.702.02 1.157.318 1.157.913 0 1.446-1.57 1.87-2.643 1.87-1.198 0-2.23-.7-2.23-2.04 0-1.573.826-3.954 1.59-5.527.95-1.934 1.92-2.21 3.593-2.21.743 0 1.59.318 1.59 1.041 0 1-.806 1.36-1.632 1.424-.35.022-.867.043-1.197.022 0 0-.269.425-.558 1.169 1.507-.213 2.127.127 1.88 1.02-.331 1.212-1.343 1.275-2.582 1.063zm7.372-3.763c-.413 0-.661.255-.868.553-.433.638-1.383 3.146-1.528 4.166-.103.702.207.85.517.85.516 0 1.094-.573 1.3-1.509 0 0-.99-.02-.722-.935.268-.871.764-1.063 1.61-1.105 1.652-.064 1.487 1.19 1.343 1.85-.434 2.167-1.92 3.91-4.048 3.91-1.445 0-2.354-.829-2.354-2.338 0-1.084.517-2.784.93-3.784.888-2.125 1.796-3.592 4.15-3.592 1.404 0 2.52.531 2.354 1.892-.124.999-.599 1.594-1.487 1.658-.247.021-1.26 0-.929-1 .186-.34.227-.616-.268-.616zm8.879 1.807c-.248 1.276-.806 2.785-1.425 3.912-.991 1.828-2.189 2.083-3.242 2.083-1.053-.022-2.23-.404-2.25-2.083 0-1.19.495-2.891.929-3.997.743-2.02 1.507-3.656 3.902-3.614 2.808 0 2.313 2.573 2.086 3.7zm-1.983-1.275c-.02.765-1.135 3.847-1.507 4.528-.165.297-.35.531-.702.531-.29 0-.434-.213-.434-.468-.02-.701 1.219-4.187 1.632-4.74.186-.298.392-.34.64-.34.33.021.371.276.371.489z" fill="#000"/></g></g></svg>