<svg xmlns="http://www.w3.org/2000/svg" viewBox="0 0 16 16"><g data-name="Layer 2"><path d="M6.57 6.52A.42.42 0 117 7a.44.44 0 01-.43-.48zm2.86 0A.42.42 0 109 7a.44.44 0 00.43-.48zM16 1.61v12.78A1.61 1.61 0 0114.39 16H1.61A1.61 1.61 0 010 14.39V1.61A1.61 1.61 0 011.61 0h12.78A1.61 1.61 0 0116 1.61zM2.87 15.36l.29-1.57.34-1.89a1.43 1.43 0 00-1.19.7 4 4 0 00-.39.69L1 15.1a1 1 0 01-.23-.31 1 1 0 00.88.56zm-2.2-.77a1 1 0 010-.2 1 1 0 00-.01.2zm.06.19a1 1 0 01-.05-.16.94.94 0 00.05.16zm11.76.57l-.23-1.27-.44-2.41a.17.17 0 000-.1H4.24l-.05.1-.11.61-.56 3.06zM5.73 3.95a1.15 1.15 0 00-1.14 1.14v3.3a1.15 1.15 0 001.14 1.14h4.54a1.15 1.15 0 001.14-1.15V5.09a1.15 1.15 0 00-1.14-1.14zm3.74-.64v-.83H6.52v.83zm-3.53 7.63h4.12v-.77H5.94zm8.45 4.42a1 1 0 00.61-.26l-.95-1.79a4.11 4.11 0 00-.4-.71 1.39 1.39 0 00-1.19-.7l.63 3.46zm.93-13.75a1 1 0 00-1-1H1.61a1 1 0 00-1 1v12.72L1.34 13a4.49 4.49 0 01.44-.78 2 2 0 011.89-1 .66.66 0 01.57-.33H5.3v-.83a1.78 1.78 0 01-1.35-1.67v-3.3a1.79 1.79 0 011.78-1.78h.15v-.93a.54.54 0 01.54-.54h3.15a.54.54 0 01.54.54v.93h.16a1.79 1.79 0 011.78 1.78v3.3a1.78 1.78 0 01-1.35 1.73v.83h1.06a.66.66 0 01.56.33 2 2 0 011.89 1 4.62 4.62 0 01.45.8l.69 1.3zM7.9 8.66a2.05 2.05 0 01-.9-.17.25.25 0 01.23-.49 1.75 1.75 0 00.77.16A2.72 2.72 0 008.84 8a.25.25 0 01.33.13.25.25 0 01-.17.37 3 3 0 01-1 .16z" fill="#FBCC00" data-name="Layer 1"/></g></svg>